<svg xmlns="http://www.w3.org/2000/svg" xmlns:xlink="http://www.w3.org/1999/xlink" width="300pt" height="190pt" version="1.1" viewBox="-151.876 566.642 300 190">
  <title>SVG Text</title>
  <g opacity="1.000">
    <path id="STROKE_2bfa9c13-80cd-46f6-91de-c552b350eb57" fill="none" stroke-width="5.386" stroke-opacity="1.000" stroke-linecap="round" stroke-linejoin="round" d="M -31.221 583.590 Q -30.703 583.847 -29.018 581.829 Q -27.332 579.810 -26.457 578.000 Q -25.581 576.189 -25.507 575.411 Q -25.432 574.632 -25.519 574.295 Q -25.606 573.957 -25.632 573.847 Q -25.659 573.738 -27.607 573.189 Q -29.555 572.640 -32.189 573.459 Q -34.823 574.278 -36.497 575.068 Q -38.170 575.857 -39.161 576.457 Q -40.151 577.056 -45.536 580.124 Q -50.921 583.192 -60.202 590.432 Q -69.482 597.672 -75.471 603.004 Q -81.460 608.336 -84.164 611.169 Q -86.869 614.001 -88.352 615.629 Q -89.836 617.257 -94.726 622.340 Q -99.616 627.424 -102.800 631.366 Q -105.984 635.309 -107.967 637.905 Q -109.950 640.501 -110.951 642.553 Q -111.952 644.606 -112.439 645.858 Q -112.927 647.110 -112.665 647.899 Q -112.402 648.688 -111.824 649.254 Q -111.246 649.819 -107.099 649.843 Q -102.953 649.867 -95.891 648.304 Q -88.830 646.740 -81.594 645.969 Q -74.359 645.197 -70.173 645.126 Q -65.988 645.055 -63.055 645.456 Q -60.122 645.857 -57.238 647.184 Q -54.353 648.511 -52.612 650.299 Q -50.871 652.087 -50.218 655.573 Q -49.566 659.060 -49.604 661.082 Q -49.642 663.103 -50.373 666.678 Q -51.104 670.252 -53.842 675.638 Q -56.580 681.024 -60.960 686.357 Q -65.339 691.690 -68.328 694.540 Q -71.317 697.390 -75.831 701.140 Q -80.344 704.890 -88.491 710.492 Q -96.637 716.093 -103.905 720.198 Q -111.173 724.304 -115.302 726.143 Q -119.431 727.982 -122.897 729.310 Q -126.363 730.638 -129.917 731.487 Q -133.470 732.336 -136.120 732.479 Q -138.770 732.622 -141.171 732.791 Q -143.573 732.961 -145.991 725.190 "></path>
    <path id="STROKE_da9948ce-9208-40bc-ad45-5533545ded83" fill="none" stroke-width="8.898" stroke-opacity="1.000" stroke-linecap="round" stroke-linejoin="round" d="M 9.756 592.002 Q 9.276 592.080 14.821 576.107 Q 15.028 576.720 13.440 582.652 Q 11.853 588.585 10.770 593.715 Q 9.687 598.845 9.022 601.570 Q 8.356 604.295 7.207 612.499 Q 6.058 620.703 5.510 625.838 Q 4.963 630.973 4.539 635.849 Q 4.116 640.726 3.340 653.205 Q 2.563 665.685 1.238 682.864 Q -0.087 700.043 -1.026 709.926 Q -1.965 719.808 -2.732 728.961 Q -3.500 738.113 -3.614 747.295 Q -2.861 747.069 -0.970 739.406 Q 0.922 731.742 3.329 723.287 Q 5.735 714.831 7.639 708.190 Q 9.543 701.549 14.130 688.956 Q 18.717 676.364 21.193 670.002 Q 23.669 663.640 25.165 660.181 Q 26.661 656.722 31.328 647.631 Q 35.995 638.539 40.766 631.003 Q 45.536 623.467 47.916 619.855 Q 50.296 616.242 54.357 611.622 Q 58.418 607.001 60.807 604.301 Q 63.196 601.601 66.814 598.219 Q 70.432 594.837 77.509 591.467 "></path>
    <path id="STROKE_64840ba1-0bc2-4cd4-836e-dfc035444589" fill="none" stroke-width="7.367" stroke-opacity="1.000" stroke-linecap="round" stroke-linejoin="round" d="M 127.971 588.286 Q 128.661 588.014 131.144 584.990 Q 133.627 581.966 135.120 579.767 Q 136.613 577.568 136.964 576.215 Q 137.316 574.862 137.285 574.116 Q 137.254 573.370 136.629 573.024 Q 136.004 572.677 134.902 572.534 Q 133.801 572.391 131.046 574.537 Q 128.290 576.682 123.852 581.326 Q 119.414 585.970 116.232 589.516 Q 113.050 593.062 109.342 597.682 Q 105.634 602.303 99.801 610.248 Q 93.969 618.193 89.710 625.065 Q 85.450 631.936 81.626 639.256 Q 77.802 646.576 75.067 652.360 Q 72.333 658.144 70.317 662.877 Q 68.301 667.609 65.688 675.944 Q 63.075 684.279 61.592 691.656 Q 60.109 699.033 59.404 703.328 Q 58.698 707.623 58.229 714.920 Q 57.761 722.217 57.733 726.814 Q 57.705 731.411 58.450 734.605 Q 59.195 737.800 60.077 739.732 Q 60.959 741.664 62.458 743.252 Q 63.958 744.840 65.573 745.064 Q 67.188 745.288 68.581 745.221 Q 69.974 745.155 73.088 742.292 Q 76.201 739.430 79.269 734.095 Q 82.336 728.760 84.279 724.257 Q 86.223 719.753 88.447 712.557 Q 90.671 705.361 91.622 699.545 Q 92.574 693.729 92.736 689.795 Q 92.898 685.861 92.851 683.420 Q 92.804 680.980 92.162 679.280 Q 91.521 677.581 90.382 676.945 Q 89.243 676.309 87.625 677.395 Q 86.007 678.481 84.888 681.648 Q 83.768 684.815 83.361 688.602 Q 82.953 692.388 82.992 694.429 Q 83.031 696.470 83.654 698.407 Q 84.276 700.345 85.730 701.253 Q 87.185 702.161 90.009 702.212 Q 92.833 702.262 96.597 700.784 Q 100.361 699.306 105.748 695.961 Q 111.134 692.616 115.379 689.901 Q 119.625 687.185 123.415 683.483 Q 127.205 679.782 129.402 676.888 Q 131.599 673.994 136.820 672.035 Q 138.112 672.768 137.184 677.328 "></path>
  </g>
</svg>
