<?xml version="1.0" encoding="UTF-8" standalone="no"?>
<svg
   width="3in"
   height="5in"
   version="1.1"
   viewBox="-330 570 396 660"
   id="svg1"
   xmlns="http://www.w3.org/2000/svg"
   xmlns:svg="http://www.w3.org/2000/svg">
  <!--
	Exported with Concepts: Smarter Sketching
	Version: 4492 on iOS 17.7
	https://concepts.app/
	-->
  <title
     id="title1">14A4165D-6273-4929-B812-CDCC1BA86256</title>
  <desc
     id="desc1">Drawing exported from Concepts: Smarter Sketching</desc>
  <defs
     id="defs1" />
  <g
     id="Pen"
     opacity="1"
     transform="rotate(90,-132,768)">
    <path
       id="STROKE_189a8735-bb66-45dc-8936-ecba3870045b"
       opacity="1"
       fill="none"
       stroke="#000000"
       stroke-width="5"
       stroke-opacity="1"
       stroke-linecap="round"
       stroke-linejoin="round"
       d="m 251.417,955.774 q 0.035,0 0.459,0.093 -0.007,0.063 0.273,0.511 -0.135,0.147 0.259,-3.726 0.393,-3.874 0.596,-6.705 0.203,-2.831 0.659,-4.08 0.456,-1.249 0.846,-1.667 0.391,-0.418 1,-1.504 0.61,-1.086 0.715,-3.065 0.105,-1.978 -0.977,-5.963 -1.083,-3.984 -1.33,-8.793 -0.247,-4.81 -0.165,-7.436 0.083,-2.627 -0.824,-7.316 -0.908,-4.688 -1.038,-9.425 -0.13,-4.738 0.439,-7.982 0.569,-3.244 1.393,-9.385 0.824,-6.142 1.136,-9.376 0.312,-3.234 0.931,-5.797 0.619,-2.564 0.162,-20.505 -0.457,-17.941 -0.861,-27.809 -0.404,-9.868 -0.86,-14.545 -0.456,-4.677 -1.018,-11.725 -0.562,-7.049 -0.35,-12.236 0.213,-5.187 0.53,-11.357 0.317,-6.169 0.335,-9.542 0.019,-3.373 -0.201,-6.216 -0.221,-2.842 -1.98,-15.293 -1.759,-12.451 -2.739,-22.274 -0.98,-9.823 -1.231,-14.474 -0.251,-4.651 -0.348,-6.927 -0.098,-2.276 -0.081,-4.659 0.017,-2.383 -0.008,-6.998 -0.025,-4.615 0.055,-12.278 0.08,-7.662 0.236,-12.123 0.157,-4.462 0.475,-6.327 0.318,-1.865 0.765,-2.898 0.447,-1.033 0.528,-6.047 0.081,-5.015 0.133,-7.895 0.053,-2.88 -0.144,-4.366 -0.197,-1.486 -0.762,-3.306 -0.565,-1.821 -0.899,-4.505 -0.334,-2.684 0.229,-5.506 0.563,-2.822 1.275,-4.295 0.713,-1.472 0.657,-3.361 -0.056,-1.89 0.591,-4.738 -0.084,0.255 0.4,-0.206 0.484,-0.46 0.571,-1.745 0.088,-1.284 0.279,-2.082 0.192,-0.798 0.747,-1.467 0.555,-0.67 0.992,-1.768 0.438,-1.097 -0.153,-4.851 -0.009,0.728 0.093,0.697 0.548,0.696 -0.279,1.612" />
    <path
       id="STROKE_cf0f05e5-cccc-42e0-a797-01eb089be3a7"
       opacity="1"
       fill="none"
       stroke="#000000"
       stroke-width="5"
       stroke-opacity="1"
       stroke-linecap="round"
       stroke-linejoin="round"
       d="m 244.466,611.204 q 0,0.001 -0.318,0.022 -0.318,0.021 -0.193,0.041 -0.403,0.448 -0.267,0.341 0,0.062 0.476,0.325 -0.079,0.518 -4.98,0.185 -4.901,-0.334 -11.967,0.593 -7.065,0.927 -10.95,1.615 -3.885,0.688 -6.502,0.767 -2.617,0.079 -5.756,0.318 -3.139,0.239 -10.755,0.299 -7.615,0.061 -11.815,0.058 -4.201,-0.004 -8.471,0.084 -4.27,0.087 -7.684,0.229 -3.413,0.142 -21.195,0.259 -17.781,0.118 -26.963,0.055 -9.182,-0.063 -13.504,0.124 -4.321,0.187 -8.442,0.538 -4.121,0.35 -7.878,0.64 -3.756,0.291 -14.591,0.952 -10.835,0.662 -17.466,1.044 -6.631,0.382 -10.076,0.729 -3.445,0.347 -14.821,1.063 -11.377,0.716 -20.025,0.836 -8.649,0.119 -13.855,0.157 -5.207,0.038 -19.162,0.045 -13.956,0.008 -24.88,-0.2 -10.924,-0.209 -17.6,-0.405 -6.677,-0.197 -14.52,0.83 -7.844,1.026 -11.914,1.78 -4.07,0.753 -9.584,1.879 -5.515,1.125 -9.183,1.917 -3.668,0.791 -8.331,1.569 -4.662,0.779 -8.215,1.244 -3.552,0.465 -15.086,0.463 -11.535,-10e-4 -20.068,-0.144 -8.533,-0.143 -11.945,-0.142 -3.412,0 -7.57,-0.031 -4.158,-0.031 -13.465,0.051 -9.307,0.083 -14.133,-0.155 -4.826,-0.238 -9.9,0.568 -5.074,0.806 -8.162,1.403 -3.089,0.598 -6.815,0.385 -3.727,-0.212 -7.903,0.618 -4.177,0.83 -7.906,1.863 -0.098,-0.213 -0.546,-0.589" />
    <path
       id="STROKE_9fa43552-1e92-4ec2-a69d-aa24ec422f24"
       opacity="1"
       fill="none"
       stroke="#000000"
       stroke-width="5"
       stroke-opacity="1"
       stroke-linecap="round"
       stroke-linejoin="round"
       d="m -247.514,632.343 q -0.162,-0.917 -0.18,-0.635 -0.891,-0.433 -0.698,-0.357 -0.087,-0.031 -0.273,-0.093 0.244,0.496 1.035,0.93 0.402,0.371 -0.572,0.73 -0.974,0.36 -1.246,5.441 -0.273,5.081 -0.642,9.277 -0.369,4.196 -1.009,9.629 -0.64,5.433 -0.775,12.064 -0.134,6.632 -0.091,10.263 0.044,3.631 0.586,8.471 0.543,4.841 1.214,12.187 0.672,7.346 0.91,12.454 0.238,5.108 -1.226,13.68 -1.464,8.572 -2.469,13.023 -1.004,4.451 -2.228,11.155 -1.223,6.703 -1.75,12.78 -0.527,6.078 -0.455,9.775 0.072,3.698 -0.6,7.797 -0.672,4.099 -1.281,6.593 -0.608,2.493 0.714,9.914 -1.082,-0.153 -1.081,-0.214 10e-4,-0.061 -0.2,-0.196 -0.201,-0.135 -0.62,-0.489" />
    <path
       id="STROKE_96924f1c-3d48-47f3-9ba7-993c2ca15999"
       opacity="1"
       fill="none"
       stroke="#000000"
       stroke-width="6.475"
       stroke-opacity="1"
       stroke-linecap="round"
       stroke-linejoin="round"
       d="m -256.638,793.128 q 0.382,0.081 -0.567,-0.068 -0.949,-0.149 -5.907,2.796 -0.427,0.451 12.824,-0.783 13.25,-1.234 22.115,-2.103 8.864,-0.869 16.712,-1.547 7.847,-0.678 22.127,-1.207 14.279,-0.528 21.452,-0.629 7.174,-0.102 10.859,-0.096 3.686,0.005 6.55,0.879 v 0.24 q -0.427,0.14 -3.987,1.31" />
    <path
       id="STROKE_83e1eaff-a152-45f8-b892-1a498b9eaac1"
       opacity="1"
       fill="none"
       stroke="#000000"
       stroke-width="5.028"
       stroke-opacity="1"
       stroke-linecap="round"
       stroke-linejoin="round"
       d="m 207.098,620.844 q -0.836,-0.557 -0.813,-0.372 -1.327,0 -0.965,0 -1.397,0 -1.064,0 -0.988,0.248 -0.778,0.248 -0.573,0.372 -0.518,0.356 -0.122,0.124 -0.267,0.434 -0.853,-0.145 6.833,1.818 7.685,1.964 14.541,4.775 6.856,2.811 16.269,7.916 9.412,5.105 18.52,9.59 -0.122,-0.062 -1.93,-0.977" />
    <path
       id="STROKE_ca6a09d0-45a5-49c2-b6cf-7023016501b1"
       opacity="1"
       fill="none"
       stroke="#000000"
       stroke-width="5"
       stroke-opacity="1"
       stroke-linecap="round"
       stroke-linejoin="round"
       d="m 208.377,610.662 q 0.315,-0.695 -0.549,0.589 -0.863,1.283 -1.392,2.213 -0.53,0.929 -0.879,0.913 -0.349,-0.016 -0.58,0.007 -0.231,0.022 -0.596,-10e-4 -0.366,-0.024 -0.307,-0.046 0.058,-0.022 -0.636,-0.211 -0.694,-0.19 -1.366,-0.854 -0.672,-0.664 -1.047,-1.974 0.738,-0.201 7.439,-2.798 6.7,-2.597 10.618,-4.093 3.919,-1.496 10.755,-4.743 6.837,-3.247 19.836,-13.224" />
  </g>
</svg>
